<?xml version="1.0" encoding="UTF-8"?>
<!DOCTYPE svg PUBLIC "-//W3C//DTD SVG 1.1//EN" "http://www.w3.org/Graphics/SVG/1.1/DTD/svg11.dtd">
<svg xmlns="http://www.w3.org/2000/svg" version="1.1" width="216px" height="200px" style="shape-rendering:geometricPrecision; text-rendering:geometricPrecision; image-rendering:optimizeQuality; fill-rule:evenodd; clip-rule:evenodd" xmlns:xlink="http://www.w3.org/1999/xlink">
<g><path style="opacity:0.976" fill="#fefefe" d="M 71.5,-0.5 C 89.8333,-0.5 108.167,-0.5 126.5,-0.5C 143.542,0.597789 159.542,5.43112 174.5,14C 187.294,24.4088 194.794,37.9088 197,54.5C 201.811,85.8891 201.478,117.222 196,148.5C 192.209,169.274 180.709,183.774 161.5,192C 150.275,195.609 138.942,198.109 127.5,199.5C 109.5,199.5 91.5,199.5 73.5,199.5C 55.5547,198.671 38.888,193.505 23.5,184C 13.3,175.441 6.80001,164.608 4,151.5C 2.15725,142.41 0.657248,133.41 -0.5,124.5C -0.5,108.167 -0.5,91.8333 -0.5,75.5C 0.313063,56.9238 5.47973,39.5904 15,23.5C 24.7086,12.3931 36.8753,5.55978 51.5,3C 58.2893,1.70294 64.956,0.536274 71.5,-0.5 Z M 47.5,46.5 C 82.5,46.5 117.5,46.5 152.5,46.5C 152.5,81.8333 152.5,117.167 152.5,152.5C 146.5,152.5 140.5,152.5 134.5,152.5C 134.5,123.167 134.5,93.8333 134.5,64.5C 105.5,64.5 76.5,64.5 47.5,64.5C 47.5,58.5 47.5,52.5 47.5,46.5 Z M 75.5,78.5 C 102.37,76.8718 117.704,89.3718 121.5,116C 117.882,142.292 102.882,154.625 76.5,153C 52.7144,145.873 42.8811,130.04 47,105.5C 52.2093,91.7861 61.7093,82.7861 75.5,78.5 Z"/></g>
<g><path style="opacity:0.943" fill="#fefefe" d="M 81.5,95.5 C 96.267,96.7641 103.434,104.764 103,119.5C 97.7766,134.806 87.6099,139.306 72.5,133C 64.7637,127.47 61.9304,119.97 64,110.5C 66.6542,101.672 72.4875,96.6721 81.5,95.5 Z"/></g>
</svg>
